<?xml version="1.0" standalone="no"?><!DOCTYPE svg PUBLIC "-//W3C//DTD SVG 1.1//EN" "http://www.w3.org/Graphics/SVG/1.1/DTD/svg11.dtd"><svg t="1697186607308" class="icon" viewBox="0 0 1024 1024" version="1.1" xmlns="http://www.w3.org/2000/svg" p-id="40949" xmlns:xlink="http://www.w3.org/1999/xlink" width="64" height="64"><path d="M874.0352 149.9648c-199.953067-199.953067-524.1344-199.953067-724.0704 0-199.953067 199.953067-199.953067 524.1344 0 724.0704 199.953067 199.953067 524.1344 199.953067 724.0704 0 199.953067-199.953067 199.953067-524.117333 0-724.0704z m-194.56 481.245867c12.8512 12.8512 15.138133 33.9456 3.310933 47.752533a34.048 34.048 0 0 1-25.975466 11.9808 33.9968 33.9968 0 0 1-24.132267-10.001067l-96.546133-96.546133a34.133333 34.133333 0 0 0-48.264534 0L391.3216 680.96a34.0992 34.0992 0 0 1-50.107733-1.979733c-11.844267-13.806933-9.557333-34.901333 3.310933-47.752534l95.0784-95.0784a34.133333 34.133333 0 0 0 0-48.264533l-95.266133-95.266133c-12.014933-12.014933-14.933333-31.368533-5.000534-45.175467a34.133333 34.133333 0 0 1 51.985067-4.369067l96.546133 96.546134a34.133333 34.133333 0 0 0 48.264534 0l95.266133-95.266134c12.014933-12.014933 31.368533-14.933333 45.175467-5.000533a34.133333 34.133333 0 0 1 4.369066 51.985067l-96.546133 96.546133a34.133333 34.133333 0 0 0 0 48.264533l95.0784 95.061334z" p-id="40950"></path></svg>